<mxfile host="65bd71144e">
    <diagram id="dtRV7uUHJ71fX6jll234" name="Page-1">
        <mxGraphModel dx="624" dy="790" grid="1" gridSize="10" guides="1" tooltips="1" connect="1" arrows="1" fold="1" page="1" pageScale="1" pageWidth="850" pageHeight="1100" math="0" shadow="0">
            <root>
                <mxCell id="0"/>
                <mxCell id="1" parent="0"/>
                <mxCell id="8" value="" style="group" vertex="1" connectable="0" parent="1">
                    <mxGeometry x="100" y="210" width="500" height="490" as="geometry"/>
                </mxCell>
                <mxCell id="3" value="&lt;b&gt;&lt;font style=&quot;font-size: 18px&quot;&gt;Win - Win&lt;/font&gt;&lt;/b&gt;&lt;br&gt;- Luôn đặt lợi ích của đối phương(đồng nghiệp, khách hàng) lên hàng đầu.&lt;br&gt;- Công bằng, minh bạch" style="ellipse;whiteSpace=wrap;html=1;aspect=fixed;fillColor=#84C4F8;fontColor=#ffffff;strokeColor=none;" vertex="1" parent="8">
                    <mxGeometry width="230" height="230" as="geometry"/>
                </mxCell>
                <mxCell id="4" value="&lt;span style=&quot;font-size: 18px&quot;&gt;&lt;b&gt;Excellence&lt;/b&gt;&lt;/span&gt;&lt;br&gt;&lt;div&gt;• Ưu tiên làm 1 việc một&lt;/div&gt;&lt;div&gt;cách xuất sắc hơn tất cả số còn lại.&lt;/div&gt;&lt;div&gt;• Mỗi thành viên là 1 cá nhân xuất sắc qua việc khổ luyện&lt;/div&gt;&lt;div&gt;• Tuyệt vời thôi là chưa đủ.&lt;/div&gt;" style="ellipse;whiteSpace=wrap;html=1;aspect=fixed;fillColor=#FFF6B2;fontColor=#000000;strokeColor=none;" vertex="1" parent="8">
                    <mxGeometry x="270" width="230" height="230" as="geometry"/>
                </mxCell>
                <mxCell id="5" value="&lt;span style=&quot;font-size: 18px&quot;&gt;&lt;b&gt;Core Values&lt;/b&gt;&lt;/span&gt;" style="ellipse;whiteSpace=wrap;html=1;aspect=fixed;fillColor=#33FFFF;fontColor=#ffffff;strokeColor=none;" vertex="1" parent="8">
                    <mxGeometry x="150" y="140" width="190" height="190" as="geometry"/>
                </mxCell>
                <mxCell id="6" value="&lt;span style=&quot;font-size: 18px&quot;&gt;&lt;b&gt;Rapid Adapt&lt;/b&gt;&lt;/span&gt;&lt;br&gt;&lt;div&gt;• Kết hợp Agile và CMMI vào sản xuất&lt;/div&gt;&lt;div&gt;• áp dụng tool để đẩy cao năng suất&lt;/div&gt;&lt;div&gt;• Xây dựng module có hệ thống&lt;/div&gt;" style="ellipse;whiteSpace=wrap;html=1;aspect=fixed;fillColor=#85EB20;fontColor=#ffffff;strokeColor=none;" vertex="1" parent="8">
                    <mxGeometry x="270" y="260" width="230" height="230" as="geometry"/>
                </mxCell>
                <mxCell id="7" value="&lt;span style=&quot;font-size: 18px&quot;&gt;&lt;b&gt;User Oriented Mind(UOM)&lt;/b&gt;&lt;/span&gt;&lt;br&gt;&lt;div&gt;• Không dừng ở việc đáp ứng đúng yêu cầu, mà còn phát hiện &amp;amp; tư vấn giải quyết các vấn đề đó&lt;/div&gt;&lt;div&gt;• Trung thực, giữ lời hứa và cố gắng thể hiện điều đó 1 cách rõ ràng nhất.&lt;/div&gt;" style="ellipse;whiteSpace=wrap;html=1;aspect=fixed;fillColor=#FF3399;fontColor=#ffffff;strokeColor=none;" vertex="1" parent="8">
                    <mxGeometry y="260" width="230" height="230" as="geometry"/>
                </mxCell>
            </root>
        </mxGraphModel>
    </diagram>
</mxfile>